<svg id="Layer_1" data-name="Layer 1" xmlns="http://www.w3.org/2000/svg" viewBox="0 0 100 100"><defs><style>.cls-1{fill:#5e4a9e;}.cls-2{fill:#fff;}</style></defs><circle class="cls-1" cx="50" cy="50" r="50"/><path class="cls-2" d="M29.25,77.351v-54.7a1.936,1.936,0,0,1,1.936-1.936H66.87a1.936,1.936,0,0,1,1.936,1.936v7.2a1.936,1.936,0,0,1-1.936,1.937h-22.5a1.936,1.936,0,0,0-1.937,1.936v7.622a1.937,1.937,0,0,0,1.937,1.937h19.54a1.936,1.936,0,0,1,1.936,1.936v6.946A1.936,1.936,0,0,1,63.912,54.1H44.372a1.936,1.936,0,0,0-1.937,1.936V66.278a1.937,1.937,0,0,0,1.937,1.937H68.814a1.936,1.936,0,0,1,1.936,1.936v7.2a1.936,1.936,0,0,1-1.936,1.936H31.186A1.936,1.936,0,0,1,29.25,77.351Z"/></svg>